name winter_1987_fast_cadence_kinematics_mean_var_rad
datacolumns 19
datarows 31
range 0.5000000000 0.8000000000
endheader
time	q_pelvis_tx_mean	q_pelvis_tx_var	q_pelvis_ty_mean	q_pelvis_ty_var	q_pelvis_tilt_mean	q_pelvis_tilt_var	hip_flexion_r_mean	hip_flexion_r_var	knee_angle_r_mean	knee_angle_r_var	ankle_angle_r_mean	ankle_angle_r_var	hip_flexion_l_mean	hip_flexion_l_var	knee_angle_l_mean	knee_angle_l_var	ankle_angle_l_mean	ankle_angle_l_var
0.5000000000	0.0000000000	0.0000000000	0.0000000000	0.0000000000	0.0000000000	0.0000000000	-0.2300343954	0.0167711385	-0.2672099085	0.0069600207	0.0616101226	0.0081420886	0.3152064629	0.0097241496	-0.1031489588	0.0050956707	0.0272271363	0.0022371408
0.5100000000	0.0000000000	0.0000000000	0.0000000000	0.0000000000	0.0000000000	0.0000000000	-0.2279400003	0.0170890677	-0.3057816849	0.0072989456	0.0314159265	0.0089816142	0.3110176727	0.0098970200	-0.1356120829	0.0047768885	0.0094247780	0.0022786068
0.5200000000	0.0000000000	0.0000000000	0.0000000000	0.0000000000	0.0000000000	0.0000000000	-0.2258456052	0.0174099822	-0.3443534614	0.0076459277	0.0012217305	0.0098623240	0.3068288825	0.0100714134	-0.1680752070	0.0044684025	-0.0083775804	0.0023204537
0.5300000000	0.0000000000	0.0000000000	0.0000000000	0.0000000000	0.0000000000	0.0000000000	-0.2197369528	0.0177338819	-0.3915646177	0.0080322207	-0.0380481777	0.0106757439	0.3022910264	0.0103181231	-0.2011491963	0.0049841578	-0.0237364778	0.0024052896
0.5400000000	0.0000000000	0.0000000000	0.0000000000	0.0000000000	0.0000000000	0.0000000000	-0.2136283004	0.0180607668	-0.4387757740	0.0084280329	-0.0773180859	0.0115213924	0.2977531704	0.0105678180	-0.2342231856	0.0055280751	-0.0390953752	0.0024916486
0.5500000000	0.0000000000	0.0000000000	0.0000000000	0.0000000000	0.0000000000	0.0000000000	-0.2023709268	0.0182724835	-0.4941027112	0.0088333645	-0.1213876495	0.0117094936	0.2939134460	0.0108204981	-0.2680825731	0.0059780864	-0.0452040276	0.0026869998
0.5600000000	0.0000000000	0.0000000000	0.0000000000	0.0000000000	0.0000000000	0.0000000000	-0.1911135531	0.0184854340	-0.5494296485	0.0092482153	-0.1654572131	0.0118991180	0.2900737217	0.0110761635	-0.3019419606	0.0064457046	-0.0513126800	0.0028897227
0.5700000000	0.0000000000	0.0000000000	0.0000000000	0.0000000000	0.0000000000	0.0000000000	-0.1745329252	0.0185566916	-0.6105161723	0.0096211584	-0.2073451151	0.0111129309	0.2864957967	0.0112420963	-0.3326597554	0.0066718526	-0.0459021593	0.0032472902
0.5800000000	0.0000000000	0.0000000000	0.0000000000	0.0000000000	0.0000000000	0.0000000000	-0.1579522973	0.0186280863	-0.6716026962	0.0100014733	-0.2492330172	0.0103536110	0.2829178717	0.0114092627	-0.3633775503	0.0069018997	-0.0404916386	0.0036257088
0.5900000000	0.0000000000	0.0000000000	0.0000000000	0.0000000000	0.0000000000	0.0000000000	-0.1363974810	0.0184854340	-0.7339982169	0.0101943951	-0.2816088748	0.0092818146	0.2777691505	0.0115213924	-0.3868522287	0.0070037713	-0.0267035376	0.0039259398
0.6000000000	0.0000000000	0.0000000000	0.0000000000	0.0000000000	0.0000000000	0.0000000000	-0.1148426648	0.0183433299	-0.7963937377	0.0103891599	-0.3139847324	0.0082685657	0.2726204292	0.0116340703	-0.4103269071	0.0071063893	-0.0129154365	0.0042381117
0.6100000000	0.0000000000	0.0000000000	0.0000000000	0.0000000000	0.0000000000	0.0000000000	-0.0890117919	0.0180373189	-0.8552113335	0.0102296698	-0.3310016926	0.0081106216	0.2635447171	0.0116340703	-0.4233296101	0.0071653633	0.0047123890	0.0042836825
0.6200000000	0.0000000000	0.0000000000	0.0000000000	0.0000000000	0.0000000000	0.0000000000	-0.0631809189	0.0177338819	-0.9140289293	0.0100714134	-0.3480186528	0.0079542005	0.2544690049	0.0116340703	-0.4363323130	0.0072245809	0.0223402144	0.0043294969
0.6300000000	0.0000000000	0.0000000000	0.0000000000	0.0000000000	0.0000000000	0.0000000000	-0.0342084533	0.0173409635	-0.9644689447	0.0095016951	-0.3481059193	0.0089485632	0.2408554368	0.0114652590	-0.4384267081	0.0073287981	0.0395317076	0.0041927846
0.6400000000	0.0000000000	0.0000000000	0.0000000000	0.0000000000	0.0000000000	0.0000000000	-0.0052359878	0.0169524468	-1.0149089600	0.0089485632	-0.3481931858	0.0100014733	0.2272418686	0.0112976813	-0.4405211032	0.0074337617	0.0567232007	0.0040582656
0.6500000000	0.0000000000	0.0000000000	0.0000000000	0.0000000000	0.0000000000	0.0000000000	0.0253072742	0.0164338128	-1.0535680030	0.0081106216	-0.3336196865	0.0112976813	0.2100503755	0.0110211268	-0.4338888520	0.0075394715	0.0712966999	0.0038823186
0.6600000000	0.0000000000	0.0000000000	0.0000000000	0.0000000000	0.0000000000	0.0000000000	0.0558505361	0.0159232359	-1.0922270459	0.0073138642	-0.3190461873	0.0126728462	0.1928588823	0.0107479992	-0.4272566009	0.0076459277	0.0858701992	0.0037102706
0.6700000000	0.0000000000	0.0000000000	0.0000000000	0.0000000000	0.0000000000	0.0000000000	0.0861319986	0.0152478153	-1.1167489219	0.0065300532	-0.2946988442	0.0132490377	0.1738347935	0.0105140606	-0.4142538980	0.0077224247	0.0964294412	0.0035629272
0.6800000000	0.0000000000	0.0000000000	0.0000000000	0.0000000000	0.0000000000	0.0000000000	0.1164134611	0.0145870316	-1.1412707979	0.0057906553	-0.2703515011	0.0138380383	0.1548107047	0.0102826961	-0.4012511950	0.0077993026	0.1069886831	0.0034185690
0.6900000000	0.0000000000	0.0000000000	0.0000000000	0.0000000000	0.0000000000	0.0000000000	0.1445132621	0.0138791312	-1.1511319082	0.0054247489	-0.2421644337	0.0135317836	0.1355248164	0.0101415973	-0.3844960342	0.0078301603	0.1138827337	0.0033072389
0.7000000000	0.0000000000	0.0000000000	0.0000000000	0.0000000000	0.0000000000	0.0000000000	0.1726130630	0.0131888377	-1.1609930184	0.0050707834	-0.2139773663	0.0132289558	0.1162389282	0.0100014733	-0.3677408734	0.0078610790	0.1207767842	0.0031977518
0.7100000000	0.0000000000	0.0000000000	0.0000000000	0.0000000000	0.0000000000	0.0000000000	0.1966986067	0.0125747975	-1.1568914947	0.0052842669	-0.1863138977	0.0123798423	0.0974766387	0.0099665946	-0.3490658504	0.0078301603	0.1245292421	0.0031192824
0.7200000000	0.0000000000	0.0000000000	0.0000000000	0.0000000000	0.0000000000	0.0000000000	0.2207841504	0.0119753942	-1.1527899709	0.0055021521	-0.1586504290	0.0115588908	0.0787143493	0.0099317768	-0.3303908274	0.0077993026	0.1282817000	0.0030417877
0.7300000000	0.0000000000	0.0000000000	0.0000000000	0.0000000000	0.0000000000	0.0000000000	0.2401573051	0.0113906277	-1.1356857443	0.0061685028	-0.1338667536	0.0104961720	0.0609119909	0.0099665946	-0.3111049392	0.0077070949	0.1293288976	0.0030225663
0.7400000000	0.0000000000	0.0000000000	0.0000000000	0.0000000000	0.0000000000	0.0000000000	0.2595304598	0.0108204981	-1.1185815176	0.0068729305	-0.1090830782	0.0094846898	0.0431096325	0.0100014733	-0.2918190509	0.0076154355	0.1303760951	0.0030034059
0.7500000000	0.0000000000	0.0000000000	0.0000000000	0.0000000000	0.0000000000	0.0000000000	0.2746275578	0.0102826961	-1.0902199173	0.0078456120	-0.0880518608	0.0084601091	0.0263544717	0.0101064749	-0.2729694950	0.0074488174	0.1294161640	0.0030417877
0.7600000000	0.0000000000	0.0000000000	0.0000000000	0.0000000000	0.0000000000	0.0000000000	0.2897246558	0.0097586018	-1.0618583169	0.0088826440	-0.0670206433	0.0074940759	0.0095993109	0.0102120248	-0.2541199391	0.0072840422	0.1284562329	0.0030804132
0.7700000000	0.0000000000	0.0000000000	0.0000000000	0.0000000000	0.0000000000	0.0000000000	0.3012438289	0.0092650074	-1.0236356063	0.0100189355	-0.0502654825	0.0066149500	-0.0061086524	0.0104247696	-0.2366666466	0.0070476591	0.1267109037	0.0031583953
0.7800000000	0.0000000000	0.0000000000	0.0000000000	0.0000000000	0.0000000000	0.0000000000	0.3127630020	0.0087842221	-0.9854128957	0.0112235984	-0.0335103216	0.0057906553	-0.0218166156	0.0106397077	-0.2192133541	0.0068151751	0.1249655744	0.0032373521
0.7900000000	0.0000000000	0.0000000000	0.0000000000	0.0000000000	0.0000000000	0.0000000000	0.3217514476	0.0083960176	-0.9384635388	0.0124381689	-0.0212930169	0.0051331158	-0.0365646478	0.0109845118	-0.2035926572	0.0065018761	0.1237438440	0.0033576150
0.8000000000	0.0000000000	0.0000000000	0.0000000000	0.0000000000	0.0000000000	0.0000000000	0.3307398933	0.0080165862	-0.8915141819	0.0137151252	-0.0090757121	0.0045151917	-0.0513126800	0.0113348142	-0.1879719604	0.0061959488	0.1225221135	0.0034800713
